<?xml version="1.0" encoding="utf-8"?>
<!-- Generator: Adobe Illustrator 16.0.0, SVG Export Plug-In . SVG Version: 6.00 Build 0)  -->
<!DOCTYPE svg PUBLIC "-//W3C//DTD SVG 1.1//EN" "http://www.w3.org/Graphics/SVG/1.1/DTD/svg11.dtd">
<svg version="1.1" id="Layer_1" xmlns="http://www.w3.org/2000/svg" xmlns:xlink="http://www.w3.org/1999/xlink" x="0px" y="0px"
	 width="396.85px" height="56.69px" viewBox="0 0 396.85 56.69" enable-background="new 0 0 396.85 56.69" xml:space="preserve">
<g>
	<g>
		<path fill="#F4F4F7" d="M96.649,54.829L86.589,40.29h-0.599H75.478v14.539H63.389V2.631h22.602
			c13.943,0,22.663,7.236,22.663,18.94c0,7.827-3.944,13.576-10.738,16.476l11.716,16.782H96.649z M85.32,12.471h-9.842v18.193
			h9.842c7.382,0,11.112-3.424,11.112-9.093C96.432,15.83,92.702,12.471,85.32,12.471z"/>
		<path fill="#F4F4F7" d="M117.741,31.862V2.631h12.079v28.786c0,9.916,4.324,14.017,11.636,14.017
			c7.383,0,11.636-4.101,11.636-14.017V2.631h11.922v29.231c0,15.362-8.793,23.867-23.631,23.867
			C126.537,55.729,117.741,47.225,117.741,31.862z"/>
		<path fill="#F4F4F7" d="M173.66,28.73c0-15.734,12.08-26.996,28.333-26.996c9.023,0,16.554,3.281,21.476,9.244l-7.756,7.161
			c-3.503-4.026-7.901-6.109-13.121-6.109c-9.771,0-16.709,6.854-16.709,16.7c0,9.845,6.938,16.704,16.709,16.704
			c5.22,0,9.618-2.086,13.121-6.193l7.756,7.161c-4.922,6.044-12.452,9.328-21.553,9.328C185.739,55.729,173.66,44.465,173.66,28.73
			z"/>
		<path fill="#F4F4F7" d="M250.606,34.32l-7.014,7.312v13.196h-12.009V2.631h12.009v24.387l23.114-24.387h13.422l-21.616,23.265
			l22.886,28.933h-14.097L250.606,34.32z"/>
		<path fill="#F4F4F7" d="M329.036,44.988v9.841h-45.637v-7.828l28.639-34.53H284v-9.84h43.928v7.832l-28.568,34.526H329.036z"/>
		<path fill="#F4F4F7" d="M361.843,36.338v18.491h-12.079V36.187L329.545,2.631h12.834l13.942,23.194l13.949-23.194h11.852
			L361.843,36.338z"/>
	</g>
	<rect x="47.07" y="2.631" fill="#FB6B30" width="9.841" height="9.84"/>
	<rect x="30.063" y="17.357" fill="#F4F4F7" width="12.103" height="37.472"/>
	<rect x="15.338" y="2.631" fill="#F4F4F7" width="26.85" height="9.84"/>
</g>
</svg>
